<svg width="31" height="31" viewBox="0 0 31 31" fill="none" xmlns="http://www.w3.org/2000/svg">
<path d="M1 24.75V15.25C1 11.4707 2.50133 7.84612 5.17373 5.17373C7.84612 2.50134 11.4707 1 15.25 1C19.0293 1 22.6539 2.50134 25.3263 5.17373C27.9987 7.84612 29.5 11.4707 29.5 15.25V24.75" stroke="black" stroke-width="2" stroke-linecap="round" stroke-linejoin="round"/>
<path d="M29.5 26.3334C29.5 27.1733 29.1664 27.9787 28.5725 28.5726C27.9786 29.1665 27.1732 29.5001 26.3333 29.5001H24.75C23.9101 29.5001 23.1047 29.1665 22.5108 28.5726C21.917 27.9787 21.5833 27.1733 21.5833 26.3334V21.5834C21.5833 20.7436 21.917 19.9381 22.5108 19.3442C23.1047 18.7504 23.9101 18.4167 24.75 18.4167H29.5V26.3334ZM1 26.3334C1 27.1733 1.33363 27.9787 1.9275 28.5726C2.52136 29.1665 3.32681 29.5001 4.16667 29.5001H5.75C6.58985 29.5001 7.39531 29.1665 7.98917 28.5726C8.58304 27.9787 8.91667 27.1733 8.91667 26.3334V21.5834C8.91667 20.7436 8.58304 19.9381 7.98917 19.3442C7.39531 18.7504 6.58985 18.4167 5.75 18.4167H1V26.3334Z" stroke="black" stroke-width="2" stroke-linecap="round" stroke-linejoin="round"/>
</svg>
