<svg width="24" height="24" viewBox="0 0 24 24" fill="none" xmlns="http://www.w3.org/2000/svg">
<path d="M20.9613 3.12106H20.6765C21.2193 2.23735 21.0189 1.05092 20.1478 0.404571C19.2091 -0.29179 17.8752 -0.0676386 17.2201 0.91128L15.7414 3.12111H3.03871C1.99459 3.12111 1.14514 3.97056 1.14514 5.01468V17.121C1.14514 18.1652 1.99459 19.0146 3.03871 19.0146H10.3939L9.83817 21.3488H8.63871C7.85699 21.3488 7.22101 21.9847 7.22101 22.7665V23.0625H5.74236C5.48348 23.0625 5.27362 23.2724 5.27362 23.5312C5.27362 23.7901 5.48348 24 5.74236 24H18.2577C18.5166 24 18.7264 23.7901 18.7264 23.5312C18.7264 23.2724 18.5166 23.0625 18.2577 23.0625H16.7791V22.7665C16.7791 21.9847 16.1431 21.3488 15.3613 21.3488H14.1619L13.6061 19.0146H20.9613C22.0055 19.0146 22.8549 18.1652 22.8549 17.121V14.4572V5.01464C22.8549 3.97052 22.0055 3.12106 20.9613 3.12106ZM14.2451 11.3615C13.5122 11.8745 12.1392 11.1772 10.8281 11.8768C10.5081 10.2149 10.7098 8.65188 12.375 8.30688C12.5902 8.26203 12.8219 8.24173 13.0192 8.24567C13.5828 8.66383 14.1529 9.08678 14.7149 9.50381C14.9609 10.2195 14.8686 10.925 14.2451 11.3615ZM14.7175 6.33714L16.0443 7.32159L15.0239 8.56568C14.6039 8.25401 14.2427 7.98608 13.8227 7.67437C13.9099 7.54401 14.6378 6.45625 14.7175 6.33714ZM17.9993 1.43266C18.3544 0.901999 19.0784 0.778532 19.5892 1.15751C20.1001 1.53653 20.1916 2.26524 19.7867 2.75887C19.0684 3.63462 17.3606 5.71681 16.6395 6.59593L15.2394 5.55711L17.9993 1.43266ZM15.8415 22.7665V23.0625H8.15849V22.7665C8.15849 22.5017 8.37392 22.2863 8.63871 22.2863H15.3613C15.6261 22.2863 15.8415 22.5017 15.8415 22.7665ZM13.1982 21.3488H10.8019L11.3576 19.0146H12.6424L13.1982 21.3488ZM21.9174 17.121C21.9174 17.6482 21.4885 18.0771 20.9613 18.0771C20.2173 18.0771 3.87537 18.0771 3.03876 18.0771C2.51157 18.0771 2.08267 17.6482 2.08267 17.121V14.9259H3.42214C3.68103 14.9259 3.89088 14.716 3.89088 14.4572C3.89088 14.1983 3.68103 13.9884 3.42214 13.9884H2.08258V5.01464C2.08258 4.48744 2.51147 4.05855 3.03867 4.05855H15.1141C14.6651 4.72964 13.355 6.68748 12.94 7.30758C12.0214 7.31587 11.1043 7.63588 10.504 8.33674C9.68701 9.2904 9.54348 10.7889 10.0774 12.7905C10.1686 13.1328 10.5957 13.2554 10.8541 13.0085C12.0661 11.8504 13.5757 13.1137 14.9275 12.0195C15.7527 11.3516 15.9479 10.2897 15.6368 9.29672C16.0574 8.78392 19.5116 4.57257 19.9332 4.05855H20.9613C21.4884 4.05855 21.9173 4.48744 21.9173 5.01464V13.9884H7.17198C6.91309 13.9884 6.70324 14.1983 6.70324 14.4571C6.70324 14.716 6.91309 14.9259 7.17198 14.9259H21.9174V17.121Z" fill="black"/>
<path d="M5.2065 13.9975C4.98084 14.0436 4.82962 14.2387 4.82962 14.4574C4.82962 14.7506 5.0977 14.9751 5.38978 14.9168C5.64932 14.8641 5.80743 14.614 5.75775 14.3655C5.70557 14.1091 5.45686 13.9471 5.2065 13.9975Z" fill="black"/>
</svg>
