<svg width="347" height="107" viewBox="0 0 347 107" fill="none" xmlns="http://www.w3.org/2000/svg">
<path d="M139.224 52.208C139.224 48.6667 139.949 45.5307 141.4 42.8C142.893 40.0267 144.898 37.872 147.416 36.336C149.933 34.8 152.706 34.032 155.736 34.032C158.253 34.032 160.472 34.5227 162.392 35.504C164.354 36.4427 165.933 37.6587 167.128 39.152V34.544H176.152V86.896H167.128V65.136C165.933 66.672 164.333 67.952 162.328 68.976C160.322 70 158.061 70.512 155.544 70.512C152.557 70.512 149.805 69.744 147.288 68.208C144.813 66.6293 142.85 64.4533 141.4 61.68C139.949 58.9067 139.224 55.7493 139.224 52.208ZM167.128 52.272C167.128 50.096 166.68 48.2187 165.784 46.64C164.888 45.0613 163.714 43.8667 162.264 43.056C160.856 42.2453 159.341 41.84 157.72 41.84C156.141 41.84 154.626 42.2453 153.176 43.056C151.768 43.8667 150.616 45.0613 149.72 46.64C148.824 48.176 148.376 50.032 148.376 52.208C148.376 54.384 148.824 56.2827 149.72 57.904C150.616 59.4827 151.768 60.6773 153.176 61.488C154.626 62.2987 156.141 62.704 157.72 62.704C159.341 62.704 160.856 62.2987 162.264 61.488C163.714 60.6773 164.888 59.4827 165.784 57.904C166.68 56.3253 167.128 54.448 167.128 52.272ZM206.663 22.64V70H197.703V22.64H206.663ZM232.859 30.32C231.281 30.32 229.958 29.8293 228.891 28.848C227.867 27.824 227.355 26.5653 227.355 25.072C227.355 23.5787 227.867 22.3413 228.891 21.36C229.958 20.336 231.281 19.824 232.859 19.824C234.438 19.824 235.739 20.336 236.763 21.36C237.83 22.3413 238.363 23.5787 238.363 25.072C238.363 26.5653 237.83 27.824 236.763 28.848C235.739 29.8293 234.438 30.32 232.859 30.32ZM237.275 34.544V70H228.315V34.544H237.275ZM267.888 39.664C269.04 38.0427 270.618 36.6987 272.624 35.632C274.672 34.5227 276.997 33.968 279.6 33.968C282.629 33.968 285.36 34.7147 287.792 36.208C290.266 37.7013 292.208 39.8347 293.616 42.608C295.066 45.3387 295.792 48.5173 295.792 52.144C295.792 55.7707 295.066 58.992 293.616 61.808C292.208 64.5813 290.266 66.736 287.792 68.272C285.36 69.808 282.629 70.576 279.6 70.576C276.997 70.576 274.693 70.0427 272.688 68.976C270.725 67.9093 269.125 66.5653 267.888 64.944V86.896H258.928V34.544H267.888V39.664ZM286.64 52.144C286.64 50.0107 286.192 48.176 285.296 46.64C284.442 45.0613 283.29 43.8667 281.84 43.056C280.432 42.2453 278.896 41.84 277.232 41.84C275.61 41.84 274.074 42.2667 272.624 43.12C271.216 43.9307 270.064 45.1253 269.168 46.704C268.314 48.2827 267.888 50.1387 267.888 52.272C267.888 54.4053 268.314 56.2613 269.168 57.84C270.064 59.4187 271.216 60.6347 272.624 61.488C274.074 62.2987 275.61 62.704 277.232 62.704C278.896 62.704 280.432 62.2773 281.84 61.424C283.29 60.5707 284.442 59.3547 285.296 57.776C286.192 56.1973 286.64 54.32 286.64 52.144ZM328.671 70.576C325.769 70.576 323.167 70.064 320.863 69.04C318.559 67.9733 316.724 66.544 315.359 64.752C314.036 62.96 313.311 60.976 313.183 58.8H322.207C322.377 60.1653 323.039 61.296 324.191 62.192C325.385 63.088 326.857 63.536 328.607 63.536C330.313 63.536 331.636 63.1947 332.575 62.512C333.556 61.8293 334.047 60.9547 334.047 59.888C334.047 58.736 333.449 57.8827 332.255 57.328C331.103 56.7307 329.247 56.0907 326.687 55.408C324.041 54.768 321.865 54.1067 320.159 53.424C318.495 52.7413 317.044 51.696 315.807 50.288C314.612 48.88 314.015 46.9813 314.015 44.592C314.015 42.6293 314.569 40.8373 315.679 39.216C316.831 37.5947 318.452 36.3147 320.543 35.376C322.676 34.4373 325.172 33.968 328.031 33.968C332.255 33.968 335.625 35.0347 338.143 37.168C340.66 39.2587 342.047 42.096 342.303 45.68H333.727C333.599 44.272 333.001 43.1627 331.935 42.352C330.911 41.4987 329.524 41.072 327.775 41.072C326.153 41.072 324.895 41.3707 323.999 41.968C323.145 42.5653 322.719 43.3973 322.719 44.464C322.719 45.6587 323.316 46.576 324.511 47.216C325.705 47.8133 327.561 48.432 330.079 49.072C332.639 49.712 334.751 50.3733 336.415 51.056C338.079 51.7387 339.508 52.8053 340.703 54.256C341.94 55.664 342.58 57.5413 342.623 59.888C342.623 61.936 342.047 63.7707 340.895 65.392C339.785 67.0133 338.164 68.2933 336.031 69.232C333.94 70.128 331.487 70.576 328.671 70.576Z" fill="#78A2CC"/>
<line x1="44.4019" y1="4" x2="44.4019" y2="102.988" stroke="#78A2CC" stroke-width="8" stroke-linecap="round"/>
<line x1="64.6028" y1="21.832" x2="64.6028" y2="85.1577" stroke="#78A2CC" stroke-width="8" stroke-linecap="round"/>
<line x1="84.8038" y1="39.664" x2="84.8038" y2="67.3269" stroke="#78A2CC" stroke-width="8" stroke-linecap="round"/>
<line x1="4" y1="39.664" x2="4" y2="67.3269" stroke="#78A2CC" stroke-width="8" stroke-linecap="round"/>
<line x1="24.2009" y1="21.832" x2="24.2009" y2="85.1577" stroke="#78A2CC" stroke-width="8" stroke-linecap="round"/>
</svg>
