<svg width="161" height="48" viewBox="0 0 161 48" fill="none" xmlns="http://www.w3.org/2000/svg">
<line x1="17.5" y1="5.5" x2="17.5" y2="42.5" stroke="white" stroke-width="3" stroke-linecap="round"/>
<line x1="25.5" y1="12.1667" x2="25.5" y2="35.8333" stroke="white" stroke-width="3" stroke-linecap="round"/>
<line x1="33.5" y1="18.8333" x2="33.5" y2="29.1667" stroke="white" stroke-width="3" stroke-linecap="round"/>
<line x1="1.5" y1="18.8333" x2="1.5" y2="29.1667" stroke="white" stroke-width="3" stroke-linecap="round"/>
<line x1="9.5" y1="12.1667" x2="9.5" y2="35.8333" stroke="white" stroke-width="3" stroke-linecap="round"/>
<path d="M57.056 26.104C57.056 24.3333 57.4187 22.7653 58.144 21.4C58.8907 20.0133 59.8933 18.936 61.152 18.168C62.4107 17.4 63.7973 17.016 65.312 17.016C66.5707 17.016 67.68 17.2613 68.64 17.752C69.6213 18.2213 70.4107 18.8293 71.008 19.576V17.272H75.52V43.448H71.008V32.568C70.4107 33.336 69.6107 33.976 68.608 34.488C67.6053 35 66.4747 35.256 65.216 35.256C63.7227 35.256 62.3467 34.872 61.088 34.104C59.8507 33.3147 58.8693 32.2267 58.144 30.84C57.4187 29.4533 57.056 27.8747 57.056 26.104ZM71.008 26.136C71.008 25.048 70.784 24.1093 70.336 23.32C69.888 22.5307 69.3013 21.9333 68.576 21.528C67.872 21.1227 67.1147 20.92 66.304 20.92C65.5147 20.92 64.7573 21.1227 64.032 21.528C63.328 21.9333 62.752 22.5307 62.304 23.32C61.856 24.088 61.632 25.016 61.632 26.104C61.632 27.192 61.856 28.1413 62.304 28.952C62.752 29.7413 63.328 30.3387 64.032 30.744C64.7573 31.1493 65.5147 31.352 66.304 31.352C67.1147 31.352 67.872 31.1493 68.576 30.744C69.3013 30.3387 69.888 29.7413 70.336 28.952C70.784 28.1627 71.008 27.224 71.008 26.136ZM90.7755 11.32V35H86.2955V11.32H90.7755ZM103.874 15.16C103.084 15.16 102.423 14.9147 101.89 14.424C101.378 13.912 101.122 13.2827 101.122 12.536C101.122 11.7893 101.378 11.1707 101.89 10.68C102.423 10.168 103.084 9.912 103.874 9.912C104.663 9.912 105.314 10.168 105.826 10.68C106.359 11.1707 106.626 11.7893 106.626 12.536C106.626 13.2827 106.359 13.912 105.826 14.424C105.314 14.9147 104.663 15.16 103.874 15.16ZM106.082 17.272V35H101.602V17.272H106.082ZM121.388 19.832C121.964 19.0213 122.753 18.3493 123.756 17.816C124.78 17.2613 125.943 16.984 127.244 16.984C128.759 16.984 130.124 17.3573 131.34 18.104C132.577 18.8507 133.548 19.9173 134.252 21.304C134.977 22.6693 135.34 24.2587 135.34 26.072C135.34 27.8853 134.977 29.496 134.252 30.904C133.548 32.2907 132.577 33.368 131.34 34.136C130.124 34.904 128.759 35.288 127.244 35.288C125.943 35.288 124.791 35.0213 123.788 34.488C122.807 33.9547 122.007 33.2827 121.388 32.472V43.448H116.908V17.272H121.388V19.832ZM130.764 26.072C130.764 25.0053 130.54 24.088 130.092 23.32C129.665 22.5307 129.089 21.9333 128.364 21.528C127.66 21.1227 126.892 20.92 126.06 20.92C125.249 20.92 124.481 21.1333 123.756 21.56C123.052 21.9653 122.476 22.5627 122.028 23.352C121.601 24.1413 121.388 25.0693 121.388 26.136C121.388 27.2027 121.601 28.1307 122.028 28.92C122.476 29.7093 123.052 30.3173 123.756 30.744C124.481 31.1493 125.249 31.352 126.06 31.352C126.892 31.352 127.66 31.1387 128.364 30.712C129.089 30.2853 129.665 29.6773 130.092 28.888C130.54 28.0987 130.764 27.16 130.764 26.072ZM151.779 35.288C150.329 35.288 149.027 35.032 147.875 34.52C146.723 33.9867 145.806 33.272 145.123 32.376C144.462 31.48 144.099 30.488 144.035 29.4H148.547C148.633 30.0827 148.963 30.648 149.539 31.096C150.137 31.544 150.873 31.768 151.747 31.768C152.601 31.768 153.262 31.5973 153.731 31.256C154.222 30.9147 154.467 30.4773 154.467 29.944C154.467 29.368 154.169 28.9413 153.571 28.664C152.995 28.3653 152.067 28.0453 150.787 27.704C149.465 27.384 148.377 27.0533 147.523 26.712C146.691 26.3707 145.966 25.848 145.347 25.144C144.75 24.44 144.451 23.4907 144.451 22.296C144.451 21.3147 144.729 20.4187 145.283 19.608C145.859 18.7973 146.67 18.1573 147.715 17.688C148.782 17.2187 150.03 16.984 151.459 16.984C153.571 16.984 155.257 17.5173 156.515 18.584C157.774 19.6293 158.467 21.048 158.595 22.84H154.307C154.243 22.136 153.945 21.5813 153.411 21.176C152.899 20.7493 152.206 20.536 151.331 20.536C150.521 20.536 149.891 20.6853 149.443 20.984C149.017 21.2827 148.803 21.6987 148.803 22.232C148.803 22.8293 149.102 23.288 149.699 23.608C150.297 23.9067 151.225 24.216 152.483 24.536C153.763 24.856 154.819 25.1867 155.651 25.528C156.483 25.8693 157.198 26.4027 157.795 27.128C158.414 27.832 158.734 28.7707 158.755 29.944C158.755 30.968 158.467 31.8853 157.891 32.696C157.337 33.5067 156.526 34.1467 155.459 34.616C154.414 35.064 153.187 35.288 151.779 35.288Z" fill="white"/>
</svg>
