<svg width="48" height="48" viewBox="0 0 48 48" fill="none" xmlns="http://www.w3.org/2000/svg">
<circle cx="24" cy="24" r="23" fill="#B6E2F6" fill-opacity="0.2"/>
<path d="M24.6325 24.1525C28.4618 24.1525 31.5654 21.2226 31.5654 17.6075C31.5654 13.9924 28.4618 11.0625 24.6325 11.0625C20.8032 11.0625 17.6996 13.9924 17.6996 17.6075C17.6996 21.2226 20.8032 24.1525 24.6325 24.1525ZM29.4855 25.7888H28.581C27.3786 26.3103 26.0407 26.6069 24.6325 26.6069C23.2243 26.6069 21.8919 26.3103 20.684 25.7888H19.7795C15.7606 25.7888 12.5 28.867 12.5 32.661V34.7882C12.5 36.1432 13.6645 37.2425 15.0998 37.2425H34.1652C35.6005 37.2425 36.765 36.1432 36.765 34.7882V32.661C36.765 28.867 33.5044 25.7888 29.4855 25.7888Z" fill="white"/>
<circle cx="24" cy="24" r="22.75" stroke="#DFE0EB" stroke-width="1.5"/>
</svg>
